<?xml version="1.0" encoding="UTF-8"?>
<!-- Generated by Pixelmator Pro 3.6.5 -->
<svg width="152" height="38" viewBox="0 0 152 38" xmlns="http://www.w3.org/2000/svg">
    <g id="Group-copy">
        <path id="JEN" fill="#c80505" fill-rule="evenodd" stroke="none" d="M 126.459961 1.02002 L 130.140015 1.02002 L 143.342041 19.374023 C 143.832642 20.048706 144.307983 20.738647 144.767944 21.44397 C 145.228027 22.149292 145.641968 22.839355 146.01001 23.514038 L 146.102051 23.514038 C 146.040649 22.440674 145.994629 21.36731 145.963989 20.293945 C 145.93335 19.220703 145.917969 18.147339 145.917969 17.073975 L 145.917969 1.02002 L 150.057983 1.02002 L 150.057983 30 L 146.378052 30 L 133.313965 11.875977 C 132.854004 11.232056 132.378662 10.503662 131.887939 9.69104 C 131.397339 8.878296 130.937378 8.073364 130.508057 7.276001 L 130.416016 7.276001 C 130.477295 8.563965 130.523315 9.852051 130.553955 11.140015 C 130.584717 12.427979 130.599976 13.715942 130.599976 15.004028 L 130.599976 30 L 126.459961 30 Z M 99.734009 1.02002 L 117.213989 1.02002 L 117.213989 4.515991 L 103.965942 4.515991 L 103.965942 13.209961 L 116.017944 13.209961 L 116.017944 16.660034 L 103.965942 16.660034 L 103.965942 26.504028 L 117.352051 26.504028 L 117.352051 30 L 99.734009 30 Z M 89.062012 1.02002 L 89.062012 24.709961 C 89.062012 26.856689 88.96228 28.619995 88.762939 30 C 88.563721 31.380005 88.080688 32.591309 87.313965 33.634033 C 86.394043 34.921997 85.197998 35.81897 83.725952 36.324951 C 82.254028 36.831055 80.781982 37.099365 79.310059 37.130005 L 79.310059 33.680054 C 81.119385 33.649292 82.514648 33.082031 83.495972 31.978027 C 84.047974 31.364624 84.408325 30.613281 84.577026 29.723999 C 84.745728 28.834717 84.829956 27.899292 84.829956 26.917969 L 84.829956 1.02002 Z"/>
        <path id="by" fill="#000000" fill-rule="evenodd" stroke="none" d="M 75.458984 20.345337 L 75.458984 22.288696 C 74.788452 22.04126 73.258423 21.491211 70.869141 20.638306 C 69.072266 20.000244 67.607422 19.466431 66.474609 19.036743 C 63.805298 18.021118 62.177734 17.304932 61.591797 16.888306 C 61.005859 16.471558 60.712891 15.755493 60.712891 14.739868 C 60.712891 14.492432 60.722656 14.302002 60.742188 14.168579 C 60.761719 14.035034 60.797485 13.870728 60.849609 13.675415 L 62.451172 13.675415 C 62.366577 13.981323 62.314453 14.202759 62.294922 14.339478 C 62.275391 14.476196 62.265625 14.596558 62.265625 14.700806 C 62.265625 15.026245 62.319336 15.265503 62.426758 15.418579 C 62.53418 15.571533 62.666016 15.700073 62.822266 15.804321 C 62.87439 15.836792 63.141235 15.953979 63.623047 16.155884 C 64.104858 16.357666 64.462891 16.50415 64.697266 16.595337 L 75.458984 12.728149 L 75.458984 14.720337 L 66.943359 17.523071 Z M 79.394531 1.152344 L 79.394531 2.861328 L 74.189453 2.861328 C 74.690796 3.245483 75.073242 3.704468 75.336914 4.238281 C 75.600586 4.772095 75.732422 5.351563 75.732422 5.976563 C 75.732422 7.278687 75.28479 8.334961 74.389648 9.145508 C 73.494507 9.956055 72.174438 10.361328 70.429688 10.361328 C 68.776001 10.361328 67.402344 9.960938 66.308594 9.160156 C 65.214844 8.359375 64.667969 7.24939 64.667969 5.830078 C 64.667969 5.035767 64.859985 4.365234 65.244141 3.818359 C 65.472046 3.492798 65.836548 3.144531 66.337891 2.773438 L 65 2.773438 L 65 1.152344 Z M 66.220703 5.722656 C 66.220703 6.673218 66.598267 7.384399 67.353516 7.856445 C 68.108765 8.328491 69.104858 8.564453 70.341797 8.564453 C 71.442017 8.564453 72.353516 8.328491 73.076172 7.856445 C 73.798828 7.384399 74.160156 6.689453 74.160156 5.771484 C 74.160156 4.970703 73.863892 4.269165 73.271484 3.666992 C 72.679077 3.064819 71.702515 2.763672 70.341797 2.763672 C 69.358765 2.763672 68.561157 2.887329 67.949219 3.134766 C 66.796875 3.597046 66.220703 4.459595 66.220703 5.722656 Z"/>
        <path id="UX" fill="#c80505" fill-rule="evenodd" stroke="none" d="M 57.968018 30 L 49.491455 30 L 43.905518 20.722656 L 38.202393 30 L 30.116455 30 L 39.550049 15.351563 L 30.487549 0.917969 L 38.94458 0.917969 L 44.178955 9.6875 L 49.550049 0.917969 L 57.655518 0.917969 L 48.534424 15.058594 Z M 12.765625 30.605469 C 8.859375 30.605469 5.854858 29.661499 3.751953 27.773438 C 1.649048 25.885376 0.597656 23.125 0.597656 19.492188 L 0.597656 0.917969 L 7.902344 0.917969 L 7.902344 19.0625 C 7.902344 21.080688 8.283203 22.584595 9.044922 23.574219 C 9.806641 24.563843 11.046875 25.058594 12.765625 25.058594 C 14.445313 25.058594 15.679077 24.583374 16.466797 23.632813 C 17.254517 22.682251 17.648438 21.158813 17.648438 19.0625 L 17.648438 0.917969 L 24.953125 0.917969 L 24.953125 19.472656 C 24.953125 23.053345 23.927734 25.804077 21.876953 27.724609 C 19.826172 29.645142 16.789063 30.605469 12.765625 30.605469 Z"/>
    </g>
</svg>
